<?xml version="1.0" standalone="no"?>
<!DOCTYPE svg PUBLIC "-//W3C//DTD SVG 20010904//EN"
 "http://www.w3.org/TR/2001/REC-SVG-20010904/DTD/svg10.dtd">
<svg version="1.0" xmlns="http://www.w3.org/2000/svg"
 width="600.000000pt" height="600.000000pt" viewBox="0 0 600.000000 600.000000"
 preserveAspectRatio="xMidYMid meet">
<metadata>
Created by potrace 1.14, written by Peter Selinger 2001-2017
</metadata>
<g transform="translate(0.000000,600.000000) scale(0.100000,-0.100000)"
fill="#000000" stroke="none">
<path d="M0 3163 l0 -2838 581 581 581 581 -17 33 c-28 54 -92 232 -119 332
-66 241 -89 438 -89 738 0 381 53 693 175 1023 266 724 755 1292 1380 1602
315 156 594 225 914 225 437 0 795 -146 1112 -454 l72 -71 543 543 542 542
-2838 0 -2837 0 0 -2837z"/>
<path d="M5413 5118 c-576 -577 -582 -583 -568 -608 27 -46 93 -224 123 -330
68 -234 96 -461 95 -775 0 -187 -4 -257 -22 -375 -51 -331 -131 -580 -286
-890 -302 -603 -757 -1072 -1305 -1344 -314 -156 -569 -218 -890 -217 -270 0
-483 49 -688 157 -167 88 -250 148 -385 282 l-87 87 -553 -553 -552 -552 2853
0 2852 0 0 2850 c0 1568 -1 2850 -3 2850 -1 0 -264 -262 -584 -582z"/>
<path d="M3343 5159 c-234 -27 -488 -191 -701 -451 -208 -255 -466 -769 -615
-1223 -135 -413 -226 -942 -215 -1253 l3 -92 1158 1158 1159 1159 -26 97 c-80
303 -239 505 -450 576 -50 16 -215 44 -236 39 -3 -1 -37 -5 -77 -10z"/>
<path d="M3012 2717 l-1153 -1153 26 -87 c83 -288 228 -490 420 -585 261 -130
561 -51 853 223 402 379 734 1040 906 1805 61 275 110 680 104 863 l-3 87
-1153 -1153z"/>
</g>
</svg>
